<?xml version="1.0" standalone="no"?>
<!DOCTYPE svg PUBLIC "-//W3C//DTD SVG 20010904//EN"
 "http://www.w3.org/TR/2001/REC-SVG-20010904/DTD/svg10.dtd">
<svg version="1.0" xmlns="http://www.w3.org/2000/svg"
 width="512.000000pt" height="512.000000pt" viewBox="0 0 512.000000 512.000000"
 preserveAspectRatio="xMidYMid meet">
<metadata>
Created by potrace 1.14, written by Peter Selinger 2001-2017
</metadata>
<g transform="translate(0.000000,512.000000) scale(0.100000,-0.100000)"
fill="#000000" stroke="none">
<path d="M0 2560 l0 -2560 2560 0 2560 0 0 2560 0 2560 -2560 0 -2560 0 0
-2560z m2795 5 l0 -2320 -65 0 -65 0 -3 2310 c-1 1271 0 2316 3 2323 3 9 23
12 67 10 l63 -3 0 -2320z m-1212 1150 c390 -59 670 -309 782 -700 70 -244 74
-530 10 -774 -100 -377 -338 -617 -702 -708 -97 -24 -126 -27 -288 -27 -149 0
-196 4 -272 21 -232 55 -412 164 -534 326 -149 198 -229 464 -229 763 0 537
257 934 689 1064 160 49 365 62 544 35z m2360 -257 c-5 -150 -8 -559 -8 -908
l0 -635 27 -47 c19 -32 41 -52 70 -67 44 -21 163 -45 283 -57 l66 -7 -3 -86
-3 -86 -665 0 -665 0 -3 83 c-2 60 1 84 10 87 7 2 81 11 163 20 183 19 215 28
257 72 l33 34 3 715 2 714 -228 0 c-164 0 -231 3 -240 12 -12 12 -17 143 -6
172 5 13 24 16 104 16 123 0 249 22 349 60 81 31 210 110 250 154 23 24 30 26
118 26 l93 0 -7 -272z"/>
<path d="M1283 3550 c-161 -32 -308 -181 -383 -387 -52 -144 -70 -255 -77
-470 -10 -315 23 -513 115 -707 100 -209 251 -316 447 -316 195 0 343 104 445
313 86 178 120 353 120 629 0 280 -33 465 -115 633 -51 106 -146 216 -222 257
-95 52 -218 70 -330 48z"/>
</g>
</svg>
